<svg width="120" height="40" viewBox="0 0 120 40" fill="none" xmlns="http://www.w3.org/2000/svg">
<path d="M110.135 0.00013H9.53468C9.16798 0.00013 8.80568 0.00013 8.43995 0.00213C8.1338 0.00413 7.83009 0.00994 7.521 0.01483C6.84951 0.0227318 6.17961 0.0818063 5.5171 0.19154C4.85552 0.303663 4.21467 0.515046 3.61622 0.81854C3.0185 1.1246 2.47235 1.5223 1.99757 1.9972C1.5203 2.47077 1.12246 3.01815 0.81935 3.61829C0.5154 4.21724 0.304641 4.85907 0.19435 5.52161C0.0830109 6.18332 0.0230984 6.85265 0.01515 7.52361C0.00587 7.83021 0.00489 8.13783 0 8.44447V31.5587C0.00489 31.8692 0.00587 32.17 0.01515 32.4806C0.0231008 33.1516 0.0830134 33.8209 0.19435 34.4825C0.304336 35.1455 0.515108 35.7877 0.81935 36.3868C1.12233 36.985 1.52022 37.5302 1.99757 38.0011C2.47054 38.4781 3.01705 38.8761 3.61622 39.1798C4.21467 39.4841 4.85545 39.6968 5.5171 39.8106C6.17972 39.9195 6.84956 39.9786 7.521 39.9874C7.83009 39.9942 8.1338 39.9981 8.43995 39.9981C8.80567 40.0001 9.168 40.0001 9.53468 40.0001H110.135C110.494 40.0001 110.859 40.0001 111.219 39.9981C111.523 39.9981 111.836 39.9942 112.141 39.9874C112.811 39.9791 113.479 39.92 114.141 39.8106C114.804 39.696 115.448 39.4834 116.049 39.1798C116.647 38.8759 117.193 38.478 117.666 38.0011C118.142 37.5284 118.541 36.9836 118.848 36.3868C119.15 35.7872 119.358 35.1451 119.467 34.4825C119.578 33.8208 119.64 33.1516 119.652 32.4806C119.656 32.17 119.656 31.8692 119.656 31.5587C119.664 31.1954 119.664 30.8341 119.664 30.4649V9.53626C119.664 9.17005 119.664 8.80677 119.656 8.44447C119.656 8.13783 119.656 7.83021 119.652 7.52357C119.64 6.85255 119.578 6.18337 119.467 5.52157C119.358 4.85941 119.149 4.21763 118.848 3.61825C118.23 2.41533 117.252 1.43616 116.049 0.81845C115.448 0.515697 114.804 0.30437 114.141 0.19145C113.48 0.0812328 112.811 0.0221378 112.141 0.01469C111.836 0.00981 111.523 0.00395 111.219 0.002C110.859 0 110.494 0 110.135 0V0.00013Z" fill="#A6A6A6"/>
<path d="M8.44487 39.125C8.14019 39.125 7.84287 39.1211 7.54058 39.1143C6.91436 39.1061 6.2896 39.0516 5.67144 38.9512C5.09503 38.8519 4.53664 38.6673 4.0147 38.4033C3.49754 38.1415 3.02585 37.7983 2.6177 37.3867C2.20364 36.98 1.85891 36.5082 1.59719 35.9902C1.33258 35.4688 1.14945 34.9099 1.05419 34.333C0.951311 33.7131 0.895651 33.0863 0.887687 32.458C0.881347 32.2471 0.873047 31.5449 0.873047 31.5449V8.44434C0.873047 8.44434 0.881887 7.75293 0.887737 7.5498C0.895363 6.92248 0.950699 6.29665 1.05327 5.67773C1.14871 5.09925 1.33197 4.53875 1.59673 4.01563C1.85749 3.49794 2.2003 3.02586 2.61187 2.61768C3.02297 2.20562 3.49617 1.8606 4.01421 1.59521C4.53495 1.33209 5.09228 1.14873 5.66753 1.05127C6.28772 0.949836 6.91465 0.894996 7.54304 0.88721L8.44536 0.875H111.214L112.127 0.8877C112.75 0.895099 113.371 0.94945 113.985 1.05029C114.566 1.14898 115.13 1.33362 115.656 1.59814C116.694 2.13299 117.539 2.97916 118.071 4.01807C118.332 4.53758 118.512 5.09351 118.607 5.66699C118.71 6.29099 118.768 6.92174 118.78 7.5542C118.783 7.8374 118.783 8.1416 118.783 8.44434C118.791 8.81934 118.791 9.17627 118.791 9.53613V30.4648C118.791 30.8281 118.791 31.1826 118.783 31.54C118.783 31.8652 118.783 32.1631 118.779 32.4697C118.768 33.0909 118.711 33.7104 118.608 34.3232C118.515 34.9043 118.333 35.4675 118.068 35.9932C117.805 36.5056 117.462 36.9733 117.053 37.3789C116.644 37.7927 116.172 38.1379 115.653 38.4014C115.128 38.6674 114.566 38.8527 113.985 38.9512C113.367 39.0522 112.742 39.1067 112.116 39.1143C111.823 39.1211 111.517 39.125 111.219 39.125L110.135 39.127L8.44487 39.125Z" fill="black"/>
<path d="M24.768 20.3008C24.7788 19.4662 25.0005 18.6478 25.4125 17.9218C25.8245 17.1959 26.4135 16.5859 27.1246 16.1488C26.6728 15.5036 26.0769 14.9727 25.3841 14.5981C24.6912 14.2236 23.9206 14.0157 23.1334 13.9911C21.4542 13.8148 19.8262 14.9959 18.9705 14.9959C18.0982 14.9959 16.7807 14.0086 15.362 14.0378C14.4443 14.0674 13.55 14.3343 12.7661 14.8123C11.9822 15.2904 11.3356 15.9633 10.8891 16.7656C8.9551 20.1141 10.3977 25.0351 12.2503 27.7417C13.1772 29.0671 14.2605 30.5475 15.6779 30.495C17.065 30.4375 17.583 29.6105 19.2573 29.6105C20.9161 29.6105 21.4021 30.495 22.8483 30.4616C24.3367 30.4375 25.2745 29.1304 26.1688 27.7925C26.8348 26.8481 27.3473 25.8044 27.6873 24.7C26.8225 24.3343 26.0846 23.7221 25.5655 22.9398C25.0464 22.1575 24.769 21.2397 24.768 20.3008Z" fill="white"/>
<path d="M22.0356 12.2108C22.8471 11.2366 23.247 9.98445 23.1501 8.72021C21.9103 8.85044 20.765 9.44299 19.9426 10.3798C19.5404 10.8375 19.2324 11.3699 19.0362 11.9467C18.8399 12.5235 18.7593 13.1333 18.7988 13.7412C19.419 13.7476 20.0325 13.6132 20.5932 13.3481C21.1538 13.083 21.647 12.6942 22.0356 12.2108Z" fill="white"/>
<path d="M42.3008 27.1397H37.5674L36.4307 30.4961H34.4258L38.9092 18.0781H40.9922L45.4756 30.4961H43.4365L42.3008 27.1397ZM38.0576 25.5908H41.8096L39.96 20.1436H39.9082L38.0576 25.5908Z" fill="white"/>
<path d="M55.1573 25.9699C55.1573 28.7834 53.6514 30.591 51.3789 30.591C50.8033 30.6211 50.2308 30.4885 49.727 30.2084C49.2232 29.9283 48.8085 29.5119 48.5303 29.007H48.4873V33.4914H46.6289V21.4426H48.4278V22.9485H48.4619C48.7529 22.446 49.1746 22.0318 49.6823 21.7499C50.1899 21.4681 50.7644 21.3291 51.3448 21.3479C53.6426 21.3479 55.1573 23.1643 55.1573 25.9699ZM53.2471 25.9699C53.2471 24.1369 52.2998 22.9319 50.8545 22.9319C49.4346 22.9319 48.4795 24.1623 48.4795 25.9699C48.4795 27.7942 49.4346 29.0158 50.8545 29.0158C52.2998 29.0158 53.2471 27.8196 53.2471 25.9699Z" fill="white"/>
<path d="M65.1221 25.9699C65.1221 28.7834 63.6162 30.591 61.3438 30.591C60.7681 30.6211 60.1956 30.4885 59.6918 30.2084C59.188 29.9283 58.7733 29.5119 58.4952 29.007H58.4521V33.4914H56.5938V21.4426H58.3926V22.9484H58.4268C58.7177 22.446 59.1394 22.0318 59.6471 21.7499C60.1547 21.4681 60.7292 21.3291 61.3096 21.3479C63.6075 21.3479 65.1221 23.1643 65.1221 25.9699ZM63.2119 25.9699C63.2119 24.1369 62.2647 22.9318 60.8194 22.9318C59.3994 22.9318 58.4444 24.1623 58.4444 25.9699C58.4444 27.7942 59.3994 29.0158 60.8194 29.0158C62.2647 29.0158 63.2119 27.8195 63.2119 25.9699H63.2119Z" fill="white"/>
<path d="M71.709 27.0362C71.8467 28.2676 73.043 29.0762 74.6778 29.0762C76.2442 29.0762 77.3711 28.2676 77.3711 27.1572C77.3711 26.1934 76.6914 25.6162 75.0821 25.2207L73.4727 24.833C71.1924 24.2822 70.1338 23.2158 70.1338 21.4854C70.1338 19.3428 72.001 17.8711 74.6524 17.8711C77.2764 17.8711 79.0752 19.3428 79.1358 21.4854H77.2598C77.1475 20.2461 76.1231 19.4981 74.626 19.4981C73.1289 19.4981 72.1045 20.2549 72.1045 21.3565C72.1045 22.2344 72.7588 22.751 74.3594 23.1465L75.7275 23.4824C78.2754 24.0849 79.334 25.1084 79.334 26.9248C79.334 29.248 77.4834 30.7031 74.54 30.7031C71.7861 30.7031 69.9268 29.2822 69.8066 27.0361L71.709 27.0362Z" fill="white"/>
<path d="M83.3437 19.2998V21.4424H85.0654V22.9141H83.3437V27.9053C83.3437 28.6807 83.6885 29.042 84.4453 29.042C84.6497 29.0384 84.8538 29.0241 85.0566 28.999V30.4619C84.7164 30.5255 84.3705 30.5543 84.0244 30.5478C82.1914 30.5478 81.4766 29.8593 81.4766 28.1035V22.9141H80.1602V21.4424H81.4765V19.2998H83.3437Z" fill="white"/>
<path d="M86.0645 25.9697C86.0645 23.1211 87.7422 21.3311 90.3584 21.3311C92.9834 21.3311 94.6533 23.1211 94.6533 25.9697C94.6533 28.8262 92.9922 30.6084 90.3584 30.6084C87.7255 30.6084 86.0645 28.8262 86.0645 25.9697ZM92.7598 25.9697C92.7598 24.0156 91.8643 22.8623 90.3584 22.8623C88.8525 22.8623 87.958 24.0244 87.958 25.9697C87.958 27.9316 88.8525 29.0762 90.3584 29.0762C91.8643 29.0762 92.7597 27.9316 92.7597 25.9697H92.7598Z" fill="white"/>
<path d="M96.1836 21.4425H97.9561V22.9835H97.9991C98.119 22.5022 98.4009 22.0769 98.7975 21.779C99.1941 21.4811 99.6812 21.3288 100.177 21.3478C100.391 21.347 100.605 21.3703 100.814 21.4171V23.1554C100.543 23.0728 100.261 23.0348 99.9785 23.0431C99.7085 23.0321 99.4394 23.0797 99.1895 23.1826C98.9397 23.2855 98.7151 23.4412 98.5311 23.6391C98.3471 23.837 98.2082 24.0724 98.1237 24.3291C98.0393 24.5857 98.0114 24.8576 98.042 25.1261V30.4962H96.1836L96.1836 21.4425Z" fill="white"/>
<path d="M109.382 27.8369C109.132 29.4805 107.531 30.6084 105.483 30.6084C102.85 30.6084 101.215 28.8437 101.215 26.0127C101.215 23.1729 102.858 21.3311 105.405 21.3311C107.91 21.3311 109.485 23.0518 109.485 25.7969V26.4336H103.091V26.5459C103.061 26.8791 103.103 27.2148 103.213 27.5306C103.323 27.8464 103.5 28.1352 103.73 28.3778C103.96 28.6203 104.24 28.8111 104.549 28.9374C104.859 29.0637 105.192 29.1226 105.526 29.1103C105.966 29.1515 106.406 29.0498 106.783 28.8203C107.16 28.5909 107.452 28.246 107.617 27.8369L109.382 27.8369ZM103.1 25.1348H107.626C107.643 24.8352 107.597 24.5354 107.493 24.2541C107.388 23.9729 107.226 23.7164 107.018 23.5006C106.809 23.2849 106.558 23.1145 106.281 23.0003C106.003 22.8861 105.705 22.8305 105.405 22.8369C105.103 22.8351 104.803 22.8933 104.523 23.008C104.243 23.1227 103.988 23.2918 103.774 23.5054C103.559 23.7191 103.389 23.973 103.274 24.2527C103.158 24.5323 103.099 24.8321 103.1 25.1348V25.1348Z" fill="white"/>
</svg>
