<svg width="24" height="24" viewBox="0 0 24 24" fill="none" xmlns="http://www.w3.org/2000/svg">
<g clip-path="url(#clip0_50_1782)">
<path d="M12 24C18.6274 24 24 18.6274 24 12C24 5.37258 18.6274 0 12 0C5.37258 0 0 5.37258 0 12C0 18.6274 5.37258 24 12 24Z" fill="#F0F0F0"/>
<path d="M12.0002 0C7.24267 0 3.13192 2.76867 1.19092 6.78263H22.8094C20.8685 2.76867 16.7577 0 12.0002 0Z" fill="#FF9811"/>
<path d="M12.0002 24C16.7577 24 20.8685 21.2313 22.8095 17.2174H1.19092C3.13192 21.2313 7.24267 24 12.0002 24Z" fill="#6DA544"/>
<path d="M12.0001 16.1739C14.3052 16.1739 16.174 14.3052 16.174 12C16.174 9.69483 14.3052 7.82611 12.0001 7.82611C9.69489 7.82611 7.82617 9.69483 7.82617 12C7.82617 14.3052 9.69489 16.1739 12.0001 16.1739Z" fill="#0052B4"/>
<path d="M11.9998 14.6087C13.4405 14.6087 14.6085 13.4408 14.6085 12C14.6085 10.5593 13.4405 9.39133 11.9998 9.39133C10.5591 9.39133 9.39111 10.5593 9.39111 12C9.39111 13.4408 10.5591 14.6087 11.9998 14.6087Z" fill="#F0F0F0"/>
<path d="M12.0002 8.78091L12.805 10.6061L14.788 10.3905L13.6097 12L14.788 13.6096L12.805 13.3939L12.0002 15.2191L11.1954 13.3939L9.2124 13.6095L10.3907 12L9.2124 10.3905L11.1954 10.6061L12.0002 8.78091Z" fill="#0052B4"/>
</g>
<defs>
<clipPath id="clip0_50_1782">
<rect width="24" height="24" fill="white"/>
</clipPath>
</defs>
</svg>
